<mxfile host="Electron" agent="Mozilla/5.0 (Windows NT 10.0; Win64; x64) AppleWebKit/537.36 (KHTML, like Gecko) draw.io/25.0.2 Chrome/128.0.6613.186 Electron/32.2.5 Safari/537.36" version="25.0.2">
  <diagram id="C5RBs43oDa-KdzZeNtuy" name="Page-1">
    <mxGraphModel dx="1098" dy="740" grid="1" gridSize="10" guides="1" tooltips="1" connect="1" arrows="1" fold="1" page="1" pageScale="1" pageWidth="827" pageHeight="1169" math="0" shadow="0">
      <root>
        <mxCell id="WIyWlLk6GJQsqaUBKTNV-0" />
        <mxCell id="WIyWlLk6GJQsqaUBKTNV-1" parent="WIyWlLk6GJQsqaUBKTNV-0" />
        <mxCell id="AVq56h0RJB52XFQ8CTxB-37" value="InGame Flow" style="swimlane;whiteSpace=wrap;html=1;" parent="WIyWlLk6GJQsqaUBKTNV-1" vertex="1">
          <mxGeometry width="660" height="380" as="geometry" />
        </mxCell>
        <mxCell id="WIyWlLk6GJQsqaUBKTNV-2" value="" style="rounded=0;html=1;jettySize=auto;orthogonalLoop=1;fontSize=11;endArrow=block;endFill=0;endSize=8;strokeWidth=1;shadow=0;labelBackgroundColor=none;edgeStyle=orthogonalEdgeStyle;exitX=0.5;exitY=1;exitDx=0;exitDy=0;entryX=0.5;entryY=0;entryDx=0;entryDy=0;" parent="AVq56h0RJB52XFQ8CTxB-37" source="WIyWlLk6GJQsqaUBKTNV-3" target="AVq56h0RJB52XFQ8CTxB-4" edge="1">
          <mxGeometry relative="1" as="geometry">
            <mxPoint x="350" y="60" as="sourcePoint" />
            <mxPoint x="330" y="90" as="targetPoint" />
          </mxGeometry>
        </mxCell>
        <mxCell id="WIyWlLk6GJQsqaUBKTNV-3" value="스테이지 시작" style="rounded=1;whiteSpace=wrap;html=1;fontSize=12;glass=0;strokeWidth=1;shadow=0;fillColor=#dae8fc;strokeColor=#6c8ebf;" parent="AVq56h0RJB52XFQ8CTxB-37" vertex="1">
          <mxGeometry x="40" y="40" width="120" height="40" as="geometry" />
        </mxCell>
        <mxCell id="WIyWlLk6GJQsqaUBKTNV-11" value="스테이지 종료" style="rounded=1;whiteSpace=wrap;html=1;fontSize=12;glass=0;strokeWidth=1;shadow=0;fillColor=#dae8fc;strokeColor=#6c8ebf;" parent="AVq56h0RJB52XFQ8CTxB-37" vertex="1">
          <mxGeometry x="40" y="320" width="120" height="40" as="geometry" />
        </mxCell>
        <mxCell id="AVq56h0RJB52XFQ8CTxB-3" value="캐릭터 이동 및 배치 가능" style="rounded=1;whiteSpace=wrap;html=1;" parent="AVq56h0RJB52XFQ8CTxB-37" vertex="1">
          <mxGeometry x="520" y="120" width="120" height="40" as="geometry" />
        </mxCell>
        <mxCell id="AVq56h0RJB52XFQ8CTxB-19" style="edgeStyle=orthogonalEdgeStyle;rounded=0;orthogonalLoop=1;jettySize=auto;html=1;exitX=0.5;exitY=1;exitDx=0;exitDy=0;entryX=0.5;entryY=0;entryDx=0;entryDy=0;" parent="AVq56h0RJB52XFQ8CTxB-37" source="AVq56h0RJB52XFQ8CTxB-4" target="WIyWlLk6GJQsqaUBKTNV-11" edge="1">
          <mxGeometry relative="1" as="geometry" />
        </mxCell>
        <mxCell id="AVq56h0RJB52XFQ8CTxB-4" value="스테이지 내 챕터 사이클" style="swimlane;whiteSpace=wrap;html=1;fillColor=#dae8fc;strokeColor=#6c8ebf;" parent="AVq56h0RJB52XFQ8CTxB-37" vertex="1">
          <mxGeometry x="20" y="120" width="160" height="180" as="geometry" />
        </mxCell>
        <mxCell id="AVq56h0RJB52XFQ8CTxB-9" style="edgeStyle=orthogonalEdgeStyle;rounded=0;orthogonalLoop=1;jettySize=auto;html=1;exitX=0.5;exitY=1;exitDx=0;exitDy=0;entryX=0.5;entryY=0;entryDx=0;entryDy=0;" parent="AVq56h0RJB52XFQ8CTxB-4" source="AVq56h0RJB52XFQ8CTxB-0" target="AVq56h0RJB52XFQ8CTxB-2" edge="1">
          <mxGeometry relative="1" as="geometry" />
        </mxCell>
        <mxCell id="AVq56h0RJB52XFQ8CTxB-0" value="캐릭터 배치" style="shape=process;whiteSpace=wrap;html=1;backgroundOutline=1;fillColor=#dae8fc;strokeColor=#6c8ebf;" parent="AVq56h0RJB52XFQ8CTxB-4" vertex="1">
          <mxGeometry x="20" y="40" width="120" height="40" as="geometry" />
        </mxCell>
        <mxCell id="AVq56h0RJB52XFQ8CTxB-2" value="게임 시작" style="shape=process;whiteSpace=wrap;html=1;backgroundOutline=1;fillColor=#dae8fc;strokeColor=#6c8ebf;" parent="AVq56h0RJB52XFQ8CTxB-4" vertex="1">
          <mxGeometry x="20" y="120" width="120" height="40" as="geometry" />
        </mxCell>
        <mxCell id="AVq56h0RJB52XFQ8CTxB-13" style="edgeStyle=orthogonalEdgeStyle;rounded=0;orthogonalLoop=1;jettySize=auto;html=1;exitX=1;exitY=0.5;exitDx=0;exitDy=0;entryX=0;entryY=0.5;entryDx=0;entryDy=0;" parent="AVq56h0RJB52XFQ8CTxB-37" source="AVq56h0RJB52XFQ8CTxB-10" target="AVq56h0RJB52XFQ8CTxB-3" edge="1">
          <mxGeometry relative="1" as="geometry" />
        </mxCell>
        <mxCell id="AVq56h0RJB52XFQ8CTxB-15" value="true" style="edgeLabel;html=1;align=center;verticalAlign=middle;resizable=0;points=[];" parent="AVq56h0RJB52XFQ8CTxB-13" vertex="1" connectable="0">
          <mxGeometry x="0.3" y="-1" relative="1" as="geometry">
            <mxPoint x="-16" y="-1" as="offset" />
          </mxGeometry>
        </mxCell>
        <mxCell id="AVq56h0RJB52XFQ8CTxB-26" style="edgeStyle=orthogonalEdgeStyle;rounded=0;orthogonalLoop=1;jettySize=auto;html=1;exitX=0.5;exitY=1;exitDx=0;exitDy=0;entryX=0;entryY=0.5;entryDx=0;entryDy=0;" parent="AVq56h0RJB52XFQ8CTxB-37" source="AVq56h0RJB52XFQ8CTxB-10" target="AVq56h0RJB52XFQ8CTxB-11" edge="1">
          <mxGeometry relative="1" as="geometry" />
        </mxCell>
        <mxCell id="AVq56h0RJB52XFQ8CTxB-27" value="false" style="edgeLabel;html=1;align=center;verticalAlign=middle;resizable=0;points=[];" parent="AVq56h0RJB52XFQ8CTxB-26" vertex="1" connectable="0">
          <mxGeometry x="0.1667" y="-2" relative="1" as="geometry">
            <mxPoint x="-42" y="-22" as="offset" />
          </mxGeometry>
        </mxCell>
        <mxCell id="AVq56h0RJB52XFQ8CTxB-10" value="첫 배치" style="rhombus;whiteSpace=wrap;html=1;" parent="AVq56h0RJB52XFQ8CTxB-37" vertex="1">
          <mxGeometry x="360" y="120" width="120" height="40" as="geometry" />
        </mxCell>
        <mxCell id="AVq56h0RJB52XFQ8CTxB-11" value="캐릭터만 이동 가능" style="rounded=1;whiteSpace=wrap;html=1;" parent="AVq56h0RJB52XFQ8CTxB-37" vertex="1">
          <mxGeometry x="520" y="180" width="120" height="40" as="geometry" />
        </mxCell>
        <mxCell id="AVq56h0RJB52XFQ8CTxB-24" style="edgeStyle=orthogonalEdgeStyle;rounded=0;orthogonalLoop=1;jettySize=auto;html=1;exitX=1;exitY=0.5;exitDx=0;exitDy=0;entryX=0;entryY=0.5;entryDx=0;entryDy=0;" parent="AVq56h0RJB52XFQ8CTxB-37" source="AVq56h0RJB52XFQ8CTxB-17" edge="1">
          <mxGeometry relative="1" as="geometry">
            <mxPoint x="360" y="260" as="targetPoint" />
          </mxGeometry>
        </mxCell>
        <mxCell id="AVq56h0RJB52XFQ8CTxB-17" value="캐릭터 시작" style="rounded=1;whiteSpace=wrap;html=1;" parent="AVq56h0RJB52XFQ8CTxB-37" vertex="1">
          <mxGeometry x="200" y="240" width="120" height="40" as="geometry" />
        </mxCell>
        <mxCell id="AVq56h0RJB52XFQ8CTxB-22" style="edgeStyle=orthogonalEdgeStyle;rounded=0;orthogonalLoop=1;jettySize=auto;html=1;exitX=1;exitY=0.5;exitDx=0;exitDy=0;" parent="AVq56h0RJB52XFQ8CTxB-37" source="AVq56h0RJB52XFQ8CTxB-20" target="AVq56h0RJB52XFQ8CTxB-10" edge="1">
          <mxGeometry relative="1" as="geometry" />
        </mxCell>
        <mxCell id="AVq56h0RJB52XFQ8CTxB-20" value="캐릭터 정지" style="rounded=1;whiteSpace=wrap;html=1;" parent="AVq56h0RJB52XFQ8CTxB-37" vertex="1">
          <mxGeometry x="200" y="120" width="120" height="40" as="geometry" />
        </mxCell>
        <mxCell id="AVq56h0RJB52XFQ8CTxB-21" style="edgeStyle=orthogonalEdgeStyle;rounded=0;orthogonalLoop=1;jettySize=auto;html=1;exitX=1;exitY=0.5;exitDx=0;exitDy=0;entryX=0.5;entryY=1;entryDx=0;entryDy=0;" parent="AVq56h0RJB52XFQ8CTxB-37" source="AVq56h0RJB52XFQ8CTxB-0" target="AVq56h0RJB52XFQ8CTxB-20" edge="1">
          <mxGeometry relative="1" as="geometry" />
        </mxCell>
        <mxCell id="AVq56h0RJB52XFQ8CTxB-28" value="다음 챕터로" style="rounded=1;whiteSpace=wrap;html=1;" parent="AVq56h0RJB52XFQ8CTxB-37" vertex="1">
          <mxGeometry x="520" y="240" width="120" height="40" as="geometry" />
        </mxCell>
        <mxCell id="AVq56h0RJB52XFQ8CTxB-29" style="edgeStyle=orthogonalEdgeStyle;rounded=0;orthogonalLoop=1;jettySize=auto;html=1;exitX=1;exitY=0.5;exitDx=0;exitDy=0;entryX=0;entryY=0.5;entryDx=0;entryDy=0;" parent="AVq56h0RJB52XFQ8CTxB-37" source="AVq56h0RJB52XFQ8CTxB-33" target="AVq56h0RJB52XFQ8CTxB-28" edge="1">
          <mxGeometry relative="1" as="geometry" />
        </mxCell>
        <mxCell id="AVq56h0RJB52XFQ8CTxB-30" value="true" style="edgeLabel;html=1;align=center;verticalAlign=middle;resizable=0;points=[];" parent="AVq56h0RJB52XFQ8CTxB-29" vertex="1" connectable="0">
          <mxGeometry x="0.3" y="-1" relative="1" as="geometry">
            <mxPoint x="-16" y="-1" as="offset" />
          </mxGeometry>
        </mxCell>
        <mxCell id="AVq56h0RJB52XFQ8CTxB-31" style="edgeStyle=orthogonalEdgeStyle;rounded=0;orthogonalLoop=1;jettySize=auto;html=1;exitX=0.5;exitY=1;exitDx=0;exitDy=0;entryX=0;entryY=0.5;entryDx=0;entryDy=0;" parent="AVq56h0RJB52XFQ8CTxB-37" source="AVq56h0RJB52XFQ8CTxB-33" target="AVq56h0RJB52XFQ8CTxB-34" edge="1">
          <mxGeometry relative="1" as="geometry" />
        </mxCell>
        <mxCell id="AVq56h0RJB52XFQ8CTxB-32" value="false" style="edgeLabel;html=1;align=center;verticalAlign=middle;resizable=0;points=[];" parent="AVq56h0RJB52XFQ8CTxB-31" vertex="1" connectable="0">
          <mxGeometry x="0.1667" y="-2" relative="1" as="geometry">
            <mxPoint x="-42" y="-22" as="offset" />
          </mxGeometry>
        </mxCell>
        <mxCell id="AVq56h0RJB52XFQ8CTxB-33" value="승리 여부" style="rhombus;whiteSpace=wrap;html=1;" parent="AVq56h0RJB52XFQ8CTxB-37" vertex="1">
          <mxGeometry x="360" y="240" width="120" height="40" as="geometry" />
        </mxCell>
        <mxCell id="AVq56h0RJB52XFQ8CTxB-34" value="스테이지 종료" style="rounded=1;whiteSpace=wrap;html=1;" parent="AVq56h0RJB52XFQ8CTxB-37" vertex="1">
          <mxGeometry x="520" y="300" width="120" height="40" as="geometry" />
        </mxCell>
        <mxCell id="AVq56h0RJB52XFQ8CTxB-36" style="edgeStyle=orthogonalEdgeStyle;rounded=0;orthogonalLoop=1;jettySize=auto;html=1;exitX=1;exitY=0.5;exitDx=0;exitDy=0;entryX=0;entryY=0.5;entryDx=0;entryDy=0;" parent="AVq56h0RJB52XFQ8CTxB-37" source="AVq56h0RJB52XFQ8CTxB-2" target="AVq56h0RJB52XFQ8CTxB-17" edge="1">
          <mxGeometry relative="1" as="geometry" />
        </mxCell>
        <mxCell id="AVq56h0RJB52XFQ8CTxB-38" value="Skill 구조" style="swimlane;whiteSpace=wrap;html=1;" parent="WIyWlLk6GJQsqaUBKTNV-1" vertex="1">
          <mxGeometry y="400" width="660" height="520" as="geometry" />
        </mxCell>
        <mxCell id="X9StJP_YUA0gUDkx4VxT-1" style="edgeStyle=orthogonalEdgeStyle;rounded=0;orthogonalLoop=1;jettySize=auto;html=1;exitX=0.5;exitY=1;exitDx=0;exitDy=0;entryX=0.5;entryY=0;entryDx=0;entryDy=0;" edge="1" parent="AVq56h0RJB52XFQ8CTxB-38" source="AVq56h0RJB52XFQ8CTxB-39" target="X9StJP_YUA0gUDkx4VxT-0">
          <mxGeometry relative="1" as="geometry" />
        </mxCell>
        <mxCell id="AVq56h0RJB52XFQ8CTxB-39" value="Active&lt;span style=&quot;background-color: initial;&quot;&gt;Skill&lt;/span&gt;" style="rounded=1;whiteSpace=wrap;html=1;" parent="AVq56h0RJB52XFQ8CTxB-38" vertex="1">
          <mxGeometry x="40" y="40" width="120" height="40" as="geometry" />
        </mxCell>
        <mxCell id="AVq56h0RJB52XFQ8CTxB-50" style="edgeStyle=orthogonalEdgeStyle;rounded=0;orthogonalLoop=1;jettySize=auto;html=1;exitX=1;exitY=0.5;exitDx=0;exitDy=0;entryX=0;entryY=0.5;entryDx=0;entryDy=0;" parent="AVq56h0RJB52XFQ8CTxB-38" source="AVq56h0RJB52XFQ8CTxB-40" target="AVq56h0RJB52XFQ8CTxB-46" edge="1">
          <mxGeometry relative="1" as="geometry" />
        </mxCell>
        <mxCell id="AVq56h0RJB52XFQ8CTxB-51" style="edgeStyle=orthogonalEdgeStyle;rounded=0;orthogonalLoop=1;jettySize=auto;html=1;exitX=1;exitY=0.5;exitDx=0;exitDy=0;entryX=0;entryY=0.5;entryDx=0;entryDy=0;" parent="AVq56h0RJB52XFQ8CTxB-38" source="AVq56h0RJB52XFQ8CTxB-41" target="AVq56h0RJB52XFQ8CTxB-47" edge="1">
          <mxGeometry relative="1" as="geometry" />
        </mxCell>
        <mxCell id="AVq56h0RJB52XFQ8CTxB-52" style="edgeStyle=orthogonalEdgeStyle;rounded=0;orthogonalLoop=1;jettySize=auto;html=1;exitX=1;exitY=0.5;exitDx=0;exitDy=0;entryX=0;entryY=0.5;entryDx=0;entryDy=0;" parent="AVq56h0RJB52XFQ8CTxB-38" source="AVq56h0RJB52XFQ8CTxB-42" target="AVq56h0RJB52XFQ8CTxB-48" edge="1">
          <mxGeometry relative="1" as="geometry" />
        </mxCell>
        <mxCell id="AVq56h0RJB52XFQ8CTxB-46" value="스킬 정보를 갖고 있는 부분" style="rounded=1;whiteSpace=wrap;html=1;" parent="AVq56h0RJB52XFQ8CTxB-38" vertex="1">
          <mxGeometry x="280" y="160" width="360" height="40" as="geometry" />
        </mxCell>
        <mxCell id="AVq56h0RJB52XFQ8CTxB-47" value="스킬 범위를 표시하는 부분" style="rounded=1;whiteSpace=wrap;html=1;" parent="AVq56h0RJB52XFQ8CTxB-38" vertex="1">
          <mxGeometry x="280" y="220" width="360" height="40" as="geometry" />
        </mxCell>
        <mxCell id="AVq56h0RJB52XFQ8CTxB-48" value="스킬의 애니메이션 및 기능이 실제로 동작하는 부분" style="rounded=1;whiteSpace=wrap;html=1;" parent="AVq56h0RJB52XFQ8CTxB-38" vertex="1">
          <mxGeometry x="280" y="280" width="360" height="40" as="geometry" />
        </mxCell>
        <mxCell id="AVq56h0RJB52XFQ8CTxB-56" style="edgeStyle=orthogonalEdgeStyle;rounded=0;orthogonalLoop=1;jettySize=auto;html=1;exitX=1;exitY=0.5;exitDx=0;exitDy=0;entryX=0;entryY=0.5;entryDx=0;entryDy=0;" parent="AVq56h0RJB52XFQ8CTxB-38" source="AVq56h0RJB52XFQ8CTxB-53" target="AVq56h0RJB52XFQ8CTxB-54" edge="1">
          <mxGeometry relative="1" as="geometry" />
        </mxCell>
        <mxCell id="AVq56h0RJB52XFQ8CTxB-63" style="edgeStyle=orthogonalEdgeStyle;rounded=0;orthogonalLoop=1;jettySize=auto;html=1;exitX=0.5;exitY=1;exitDx=0;exitDy=0;entryX=0.5;entryY=0;entryDx=0;entryDy=0;" parent="AVq56h0RJB52XFQ8CTxB-38" source="AVq56h0RJB52XFQ8CTxB-53" target="AVq56h0RJB52XFQ8CTxB-58" edge="1">
          <mxGeometry relative="1" as="geometry" />
        </mxCell>
        <mxCell id="AVq56h0RJB52XFQ8CTxB-53" value="스킬 선택" style="rounded=1;whiteSpace=wrap;html=1;fillColor=#dae8fc;strokeColor=#6c8ebf;" parent="AVq56h0RJB52XFQ8CTxB-38" vertex="1">
          <mxGeometry x="40" y="360" width="120" height="40" as="geometry" />
        </mxCell>
        <mxCell id="AVq56h0RJB52XFQ8CTxB-57" style="edgeStyle=orthogonalEdgeStyle;rounded=0;orthogonalLoop=1;jettySize=auto;html=1;exitX=1;exitY=0.5;exitDx=0;exitDy=0;entryX=0;entryY=0.5;entryDx=0;entryDy=0;" parent="AVq56h0RJB52XFQ8CTxB-38" source="AVq56h0RJB52XFQ8CTxB-54" target="AVq56h0RJB52XFQ8CTxB-55" edge="1">
          <mxGeometry relative="1" as="geometry" />
        </mxCell>
        <mxCell id="AVq56h0RJB52XFQ8CTxB-64" style="edgeStyle=orthogonalEdgeStyle;rounded=0;orthogonalLoop=1;jettySize=auto;html=1;exitX=0.5;exitY=1;exitDx=0;exitDy=0;" parent="AVq56h0RJB52XFQ8CTxB-38" source="AVq56h0RJB52XFQ8CTxB-54" target="AVq56h0RJB52XFQ8CTxB-61" edge="1">
          <mxGeometry relative="1" as="geometry" />
        </mxCell>
        <mxCell id="AVq56h0RJB52XFQ8CTxB-54" value="위치 지정" style="rounded=1;whiteSpace=wrap;html=1;fillColor=#dae8fc;strokeColor=#6c8ebf;" parent="AVq56h0RJB52XFQ8CTxB-38" vertex="1">
          <mxGeometry x="200" y="360" width="120" height="40" as="geometry" />
        </mxCell>
        <mxCell id="AVq56h0RJB52XFQ8CTxB-65" style="edgeStyle=orthogonalEdgeStyle;rounded=0;orthogonalLoop=1;jettySize=auto;html=1;exitX=0.5;exitY=1;exitDx=0;exitDy=0;entryX=0.5;entryY=0;entryDx=0;entryDy=0;" parent="AVq56h0RJB52XFQ8CTxB-38" source="AVq56h0RJB52XFQ8CTxB-55" target="AVq56h0RJB52XFQ8CTxB-62" edge="1">
          <mxGeometry relative="1" as="geometry" />
        </mxCell>
        <mxCell id="AVq56h0RJB52XFQ8CTxB-55" value="사용" style="rounded=1;whiteSpace=wrap;html=1;fillColor=#dae8fc;strokeColor=#6c8ebf;" parent="AVq56h0RJB52XFQ8CTxB-38" vertex="1">
          <mxGeometry x="360" y="360" width="120" height="40" as="geometry" />
        </mxCell>
        <mxCell id="AVq56h0RJB52XFQ8CTxB-58" value="스킬 선택" style="rounded=1;whiteSpace=wrap;html=1;" parent="AVq56h0RJB52XFQ8CTxB-38" vertex="1">
          <mxGeometry x="40" y="440" width="120" height="40" as="geometry" />
        </mxCell>
        <mxCell id="AVq56h0RJB52XFQ8CTxB-61" value="위치 지정" style="rounded=1;whiteSpace=wrap;html=1;" parent="AVq56h0RJB52XFQ8CTxB-38" vertex="1">
          <mxGeometry x="200" y="440" width="120" height="40" as="geometry" />
        </mxCell>
        <mxCell id="AVq56h0RJB52XFQ8CTxB-62" value="사용" style="rounded=1;whiteSpace=wrap;html=1;" parent="AVq56h0RJB52XFQ8CTxB-38" vertex="1">
          <mxGeometry x="360" y="440" width="120" height="40" as="geometry" />
        </mxCell>
        <mxCell id="X9StJP_YUA0gUDkx4VxT-0" value="Vertical Container" style="swimlane;whiteSpace=wrap;html=1;fillColor=#dae8fc;strokeColor=#6c8ebf;" vertex="1" parent="AVq56h0RJB52XFQ8CTxB-38">
          <mxGeometry x="20" y="120" width="160" height="220" as="geometry" />
        </mxCell>
        <mxCell id="AVq56h0RJB52XFQ8CTxB-42" value="SkillEffect" style="rounded=1;whiteSpace=wrap;html=1;" parent="X9StJP_YUA0gUDkx4VxT-0" vertex="1">
          <mxGeometry x="20" y="160" width="120" height="40" as="geometry" />
        </mxCell>
        <mxCell id="AVq56h0RJB52XFQ8CTxB-41" value="SkillArea" style="rounded=1;whiteSpace=wrap;html=1;" parent="X9StJP_YUA0gUDkx4VxT-0" vertex="1">
          <mxGeometry x="20" y="100" width="120" height="40" as="geometry" />
        </mxCell>
        <mxCell id="AVq56h0RJB52XFQ8CTxB-40" value="SkillInfo" style="rounded=1;whiteSpace=wrap;html=1;" parent="X9StJP_YUA0gUDkx4VxT-0" vertex="1">
          <mxGeometry x="20" y="40" width="120" height="40" as="geometry" />
        </mxCell>
      </root>
    </mxGraphModel>
  </diagram>
</mxfile>
